<mxfile host="Electron" modified="2023-07-12T05:23:29.711Z" agent="Mozilla/5.0 (Windows NT 10.0; Win64; x64) AppleWebKit/537.36 (KHTML, like Gecko) draw.io/21.2.8 Chrome/112.0.5615.165 Electron/24.2.0 Safari/537.36" etag="fENSvVQ8kHGYm0mvsGRH" version="21.2.8" type="device" pages="2">
  <diagram name="Страница 1" id="DLbtYKVgdWk_i1spElcp">
    <mxGraphModel dx="1098" dy="838" grid="1" gridSize="10" guides="1" tooltips="1" connect="1" arrows="1" fold="1" page="1" pageScale="1" pageWidth="827" pageHeight="1169" math="0" shadow="0">
      <root>
        <mxCell id="0" />
        <mxCell id="1" parent="0" />
        <mxCell id="ePm7NoNLflwhsm37VKu2-29" style="edgeStyle=orthogonalEdgeStyle;rounded=0;orthogonalLoop=1;jettySize=auto;html=1;" edge="1" parent="1" source="ePm7NoNLflwhsm37VKu2-2" target="ePm7NoNLflwhsm37VKu2-19">
          <mxGeometry relative="1" as="geometry">
            <Array as="points">
              <mxPoint x="69" y="260" />
              <mxPoint x="409" y="260" />
            </Array>
          </mxGeometry>
        </mxCell>
        <mxCell id="ePm7NoNLflwhsm37VKu2-2" value="POST" style="rounded=0;whiteSpace=wrap;html=1;" vertex="1" parent="1">
          <mxGeometry x="9" y="190" width="120" height="60" as="geometry" />
        </mxCell>
        <mxCell id="ePm7NoNLflwhsm37VKu2-28" style="edgeStyle=orthogonalEdgeStyle;rounded=0;orthogonalLoop=1;jettySize=auto;html=1;entryX=0.5;entryY=0;entryDx=0;entryDy=0;" edge="1" parent="1" source="ePm7NoNLflwhsm37VKu2-3" target="ePm7NoNLflwhsm37VKu2-19">
          <mxGeometry relative="1" as="geometry">
            <Array as="points">
              <mxPoint x="239" y="260" />
              <mxPoint x="409" y="260" />
            </Array>
          </mxGeometry>
        </mxCell>
        <mxCell id="ePm7NoNLflwhsm37VKu2-3" value="GET" style="rounded=0;whiteSpace=wrap;html=1;" vertex="1" parent="1">
          <mxGeometry x="179" y="190" width="120" height="60" as="geometry" />
        </mxCell>
        <mxCell id="ePm7NoNLflwhsm37VKu2-27" value="" style="edgeStyle=orthogonalEdgeStyle;rounded=0;orthogonalLoop=1;jettySize=auto;html=1;" edge="1" parent="1" source="ePm7NoNLflwhsm37VKu2-4" target="ePm7NoNLflwhsm37VKu2-19">
          <mxGeometry relative="1" as="geometry" />
        </mxCell>
        <mxCell id="ePm7NoNLflwhsm37VKu2-4" value="PUT (Может PATCH)" style="rounded=0;whiteSpace=wrap;html=1;" vertex="1" parent="1">
          <mxGeometry x="349" y="190" width="120" height="60" as="geometry" />
        </mxCell>
        <mxCell id="ePm7NoNLflwhsm37VKu2-30" style="edgeStyle=orthogonalEdgeStyle;rounded=0;orthogonalLoop=1;jettySize=auto;html=1;" edge="1" parent="1" source="ePm7NoNLflwhsm37VKu2-5" target="ePm7NoNLflwhsm37VKu2-19">
          <mxGeometry relative="1" as="geometry">
            <Array as="points">
              <mxPoint x="579" y="260" />
              <mxPoint x="409" y="260" />
            </Array>
          </mxGeometry>
        </mxCell>
        <mxCell id="ePm7NoNLflwhsm37VKu2-5" value="DELETE" style="rounded=0;whiteSpace=wrap;html=1;" vertex="1" parent="1">
          <mxGeometry x="519" y="190" width="120" height="60" as="geometry" />
        </mxCell>
        <mxCell id="ePm7NoNLflwhsm37VKu2-12" value="" style="edgeStyle=orthogonalEdgeStyle;rounded=0;orthogonalLoop=1;jettySize=auto;html=1;" edge="1" parent="1" source="ePm7NoNLflwhsm37VKu2-6" target="ePm7NoNLflwhsm37VKu2-2">
          <mxGeometry relative="1" as="geometry" />
        </mxCell>
        <mxCell id="ePm7NoNLflwhsm37VKu2-6" value="Добавление тренировки" style="ellipse;whiteSpace=wrap;html=1;" vertex="1" parent="1">
          <mxGeometry x="9" y="80" width="120" height="80" as="geometry" />
        </mxCell>
        <mxCell id="ePm7NoNLflwhsm37VKu2-13" value="" style="edgeStyle=orthogonalEdgeStyle;rounded=0;orthogonalLoop=1;jettySize=auto;html=1;" edge="1" parent="1" source="ePm7NoNLflwhsm37VKu2-7" target="ePm7NoNLflwhsm37VKu2-3">
          <mxGeometry relative="1" as="geometry" />
        </mxCell>
        <mxCell id="ePm7NoNLflwhsm37VKu2-7" value="Получение тренировки" style="ellipse;whiteSpace=wrap;html=1;" vertex="1" parent="1">
          <mxGeometry x="179" y="80" width="120" height="80" as="geometry" />
        </mxCell>
        <mxCell id="ePm7NoNLflwhsm37VKu2-14" value="" style="edgeStyle=orthogonalEdgeStyle;rounded=0;orthogonalLoop=1;jettySize=auto;html=1;" edge="1" parent="1" source="ePm7NoNLflwhsm37VKu2-8" target="ePm7NoNLflwhsm37VKu2-4">
          <mxGeometry relative="1" as="geometry" />
        </mxCell>
        <mxCell id="ePm7NoNLflwhsm37VKu2-8" value="Обновление полей тренировки" style="ellipse;whiteSpace=wrap;html=1;" vertex="1" parent="1">
          <mxGeometry x="349" y="80" width="120" height="80" as="geometry" />
        </mxCell>
        <mxCell id="ePm7NoNLflwhsm37VKu2-15" value="" style="edgeStyle=orthogonalEdgeStyle;rounded=0;orthogonalLoop=1;jettySize=auto;html=1;" edge="1" parent="1" source="ePm7NoNLflwhsm37VKu2-9" target="ePm7NoNLflwhsm37VKu2-5">
          <mxGeometry relative="1" as="geometry" />
        </mxCell>
        <mxCell id="ePm7NoNLflwhsm37VKu2-9" value="Удаление тренировки" style="ellipse;whiteSpace=wrap;html=1;" vertex="1" parent="1">
          <mxGeometry x="519" y="80" width="120" height="80" as="geometry" />
        </mxCell>
        <mxCell id="ePm7NoNLflwhsm37VKu2-16" value="" style="edgeStyle=orthogonalEdgeStyle;rounded=0;orthogonalLoop=1;jettySize=auto;html=1;" edge="1" parent="1" source="ePm7NoNLflwhsm37VKu2-10" target="ePm7NoNLflwhsm37VKu2-11">
          <mxGeometry relative="1" as="geometry" />
        </mxCell>
        <mxCell id="ePm7NoNLflwhsm37VKu2-10" value="Получение всех тренировок" style="ellipse;whiteSpace=wrap;html=1;" vertex="1" parent="1">
          <mxGeometry x="699" y="80" width="120" height="80" as="geometry" />
        </mxCell>
        <mxCell id="ePm7NoNLflwhsm37VKu2-31" style="edgeStyle=orthogonalEdgeStyle;rounded=0;orthogonalLoop=1;jettySize=auto;html=1;" edge="1" parent="1" source="ePm7NoNLflwhsm37VKu2-11" target="ePm7NoNLflwhsm37VKu2-19">
          <mxGeometry relative="1" as="geometry">
            <Array as="points">
              <mxPoint x="759" y="260" />
              <mxPoint x="409" y="260" />
            </Array>
          </mxGeometry>
        </mxCell>
        <mxCell id="ePm7NoNLflwhsm37VKu2-11" value="GET" style="rounded=0;whiteSpace=wrap;html=1;" vertex="1" parent="1">
          <mxGeometry x="699" y="190" width="120" height="60" as="geometry" />
        </mxCell>
        <mxCell id="ePm7NoNLflwhsm37VKu2-32" style="edgeStyle=orthogonalEdgeStyle;rounded=0;orthogonalLoop=1;jettySize=auto;html=1;" edge="1" parent="1" source="ePm7NoNLflwhsm37VKu2-19" target="ePm7NoNLflwhsm37VKu2-22">
          <mxGeometry relative="1" as="geometry" />
        </mxCell>
        <mxCell id="ePm7NoNLflwhsm37VKu2-33" style="edgeStyle=orthogonalEdgeStyle;rounded=0;orthogonalLoop=1;jettySize=auto;html=1;" edge="1" parent="1" source="ePm7NoNLflwhsm37VKu2-19" target="ePm7NoNLflwhsm37VKu2-23">
          <mxGeometry relative="1" as="geometry" />
        </mxCell>
        <mxCell id="ePm7NoNLflwhsm37VKu2-34" value="" style="edgeStyle=orthogonalEdgeStyle;rounded=0;orthogonalLoop=1;jettySize=auto;html=1;" edge="1" parent="1" source="ePm7NoNLflwhsm37VKu2-19" target="ePm7NoNLflwhsm37VKu2-24">
          <mxGeometry relative="1" as="geometry" />
        </mxCell>
        <mxCell id="ePm7NoNLflwhsm37VKu2-35" style="edgeStyle=orthogonalEdgeStyle;rounded=0;orthogonalLoop=1;jettySize=auto;html=1;" edge="1" parent="1" source="ePm7NoNLflwhsm37VKu2-19" target="ePm7NoNLflwhsm37VKu2-25">
          <mxGeometry relative="1" as="geometry" />
        </mxCell>
        <mxCell id="ePm7NoNLflwhsm37VKu2-36" style="edgeStyle=orthogonalEdgeStyle;rounded=0;orthogonalLoop=1;jettySize=auto;html=1;entryX=0.5;entryY=0;entryDx=0;entryDy=0;" edge="1" parent="1" source="ePm7NoNLflwhsm37VKu2-19" target="ePm7NoNLflwhsm37VKu2-26">
          <mxGeometry relative="1" as="geometry" />
        </mxCell>
        <mxCell id="ePm7NoNLflwhsm37VKu2-19" value="api/v1/" style="rounded=0;whiteSpace=wrap;html=1;" vertex="1" parent="1">
          <mxGeometry x="349" y="280" width="120" height="60" as="geometry" />
        </mxCell>
        <mxCell id="ePm7NoNLflwhsm37VKu2-43" value="" style="edgeStyle=orthogonalEdgeStyle;rounded=0;orthogonalLoop=1;jettySize=auto;html=1;" edge="1" parent="1" source="ePm7NoNLflwhsm37VKu2-22" target="ePm7NoNLflwhsm37VKu2-38">
          <mxGeometry relative="1" as="geometry" />
        </mxCell>
        <mxCell id="ePm7NoNLflwhsm37VKu2-22" value="create_training" style="rounded=0;whiteSpace=wrap;html=1;" vertex="1" parent="1">
          <mxGeometry x="9" y="370" width="120" height="60" as="geometry" />
        </mxCell>
        <mxCell id="ePm7NoNLflwhsm37VKu2-44" value="" style="edgeStyle=orthogonalEdgeStyle;rounded=0;orthogonalLoop=1;jettySize=auto;html=1;" edge="1" parent="1" source="ePm7NoNLflwhsm37VKu2-23" target="ePm7NoNLflwhsm37VKu2-39">
          <mxGeometry relative="1" as="geometry" />
        </mxCell>
        <mxCell id="ePm7NoNLflwhsm37VKu2-23" value="get_training" style="rounded=0;whiteSpace=wrap;html=1;" vertex="1" parent="1">
          <mxGeometry x="179" y="370" width="120" height="60" as="geometry" />
        </mxCell>
        <mxCell id="ePm7NoNLflwhsm37VKu2-45" value="" style="edgeStyle=orthogonalEdgeStyle;rounded=0;orthogonalLoop=1;jettySize=auto;html=1;" edge="1" parent="1" source="ePm7NoNLflwhsm37VKu2-24" target="ePm7NoNLflwhsm37VKu2-40">
          <mxGeometry relative="1" as="geometry" />
        </mxCell>
        <mxCell id="ePm7NoNLflwhsm37VKu2-24" value="update_training" style="rounded=0;whiteSpace=wrap;html=1;" vertex="1" parent="1">
          <mxGeometry x="349" y="370" width="120" height="60" as="geometry" />
        </mxCell>
        <mxCell id="ePm7NoNLflwhsm37VKu2-46" value="" style="edgeStyle=orthogonalEdgeStyle;rounded=0;orthogonalLoop=1;jettySize=auto;html=1;" edge="1" parent="1" source="ePm7NoNLflwhsm37VKu2-25" target="ePm7NoNLflwhsm37VKu2-41">
          <mxGeometry relative="1" as="geometry" />
        </mxCell>
        <mxCell id="ePm7NoNLflwhsm37VKu2-25" value="delete_training" style="rounded=0;whiteSpace=wrap;html=1;" vertex="1" parent="1">
          <mxGeometry x="519" y="370" width="120" height="60" as="geometry" />
        </mxCell>
        <mxCell id="ePm7NoNLflwhsm37VKu2-47" value="" style="edgeStyle=orthogonalEdgeStyle;rounded=0;orthogonalLoop=1;jettySize=auto;html=1;" edge="1" parent="1" source="ePm7NoNLflwhsm37VKu2-26" target="ePm7NoNLflwhsm37VKu2-42">
          <mxGeometry relative="1" as="geometry" />
        </mxCell>
        <mxCell id="ePm7NoNLflwhsm37VKu2-26" value="get_trainings" style="rounded=0;whiteSpace=wrap;html=1;" vertex="1" parent="1">
          <mxGeometry x="699" y="370" width="120" height="60" as="geometry" />
        </mxCell>
        <mxCell id="ooP9Urd4mtOMo5Kpr5c1-3" value="" style="edgeStyle=orthogonalEdgeStyle;rounded=0;orthogonalLoop=1;jettySize=auto;html=1;" edge="1" parent="1" source="ePm7NoNLflwhsm37VKu2-38" target="ooP9Urd4mtOMo5Kpr5c1-2">
          <mxGeometry relative="1" as="geometry" />
        </mxCell>
        <mxCell id="ePm7NoNLflwhsm37VKu2-38" value="Передаем в тело модель тренировки, за исключением ID" style="rounded=0;whiteSpace=wrap;html=1;" vertex="1" parent="1">
          <mxGeometry x="9" y="480" width="120" height="60" as="geometry" />
        </mxCell>
        <mxCell id="ooP9Urd4mtOMo5Kpr5c1-8" value="" style="edgeStyle=orthogonalEdgeStyle;rounded=0;orthogonalLoop=1;jettySize=auto;html=1;" edge="1" parent="1" source="ePm7NoNLflwhsm37VKu2-39" target="ooP9Urd4mtOMo5Kpr5c1-7">
          <mxGeometry relative="1" as="geometry" />
        </mxCell>
        <mxCell id="ePm7NoNLflwhsm37VKu2-39" value="Передаем в запрос ID тренировки&lt;br style=&quot;border-color: var(--border-color);&quot;&gt;(Продумать куда именно, строка запроса или Query" style="rounded=0;whiteSpace=wrap;html=1;" vertex="1" parent="1">
          <mxGeometry x="179" y="480" width="120" height="80" as="geometry" />
        </mxCell>
        <mxCell id="ooP9Urd4mtOMo5Kpr5c1-6" value="" style="edgeStyle=orthogonalEdgeStyle;rounded=0;orthogonalLoop=1;jettySize=auto;html=1;" edge="1" parent="1" source="ePm7NoNLflwhsm37VKu2-40" target="ooP9Urd4mtOMo5Kpr5c1-5">
          <mxGeometry relative="1" as="geometry" />
        </mxCell>
        <mxCell id="ePm7NoNLflwhsm37VKu2-40" value="Передаем в тело запроса тренировку&lt;br&gt;(Тело вынесено отдельно)&lt;br&gt;В строку запроса добавляем ID" style="rounded=0;whiteSpace=wrap;html=1;" vertex="1" parent="1">
          <mxGeometry x="349" y="480" width="120" height="100" as="geometry" />
        </mxCell>
        <mxCell id="ooP9Urd4mtOMo5Kpr5c1-1" value="" style="edgeStyle=orthogonalEdgeStyle;rounded=0;orthogonalLoop=1;jettySize=auto;html=1;" edge="1" parent="1" source="ePm7NoNLflwhsm37VKu2-41" target="ePm7NoNLflwhsm37VKu2-50">
          <mxGeometry relative="1" as="geometry" />
        </mxCell>
        <mxCell id="ePm7NoNLflwhsm37VKu2-41" value="Передаем в запрос ID тренировки&lt;br&gt;(Продумать куда именно, строка запроса или Query" style="rounded=0;whiteSpace=wrap;html=1;" vertex="1" parent="1">
          <mxGeometry x="519" y="480" width="120" height="80" as="geometry" />
        </mxCell>
        <mxCell id="ePm7NoNLflwhsm37VKu2-49" value="" style="edgeStyle=orthogonalEdgeStyle;rounded=0;orthogonalLoop=1;jettySize=auto;html=1;" edge="1" parent="1" source="ePm7NoNLflwhsm37VKu2-42" target="ePm7NoNLflwhsm37VKu2-48">
          <mxGeometry relative="1" as="geometry" />
        </mxCell>
        <mxCell id="ePm7NoNLflwhsm37VKu2-42" value="Ничего в запрос не передается" style="rounded=0;whiteSpace=wrap;html=1;" vertex="1" parent="1">
          <mxGeometry x="699" y="480" width="120" height="60" as="geometry" />
        </mxCell>
        <mxCell id="ePm7NoNLflwhsm37VKu2-48" value="Возвращаем массив&lt;br&gt;trainings: [&lt;br&gt;{training1}&lt;br&gt;...&lt;br&gt;&lt;br&gt;]&lt;br&gt;&lt;br&gt;Если тренировок нет - возвращаем пустой массив" style="rounded=0;whiteSpace=wrap;html=1;align=left;" vertex="1" parent="1">
          <mxGeometry x="699" y="590" width="120" height="240" as="geometry" />
        </mxCell>
        <mxCell id="ePm7NoNLflwhsm37VKu2-50" value="&lt;div style=&quot;text-align: left;&quot;&gt;&lt;span style=&quot;background-color: initial;&quot;&gt;200 : Все хорошо, удаление прошло успешно&lt;/span&gt;&lt;/div&gt;&lt;div style=&quot;text-align: left;&quot;&gt;&lt;span style=&quot;background-color: initial;&quot;&gt;404: Не существует такой записи (соответствующей ID), ID передано не корректно&lt;/span&gt;&lt;/div&gt;" style="rounded=0;whiteSpace=wrap;html=1;" vertex="1" parent="1">
          <mxGeometry x="519" y="590" width="120" height="130" as="geometry" />
        </mxCell>
        <mxCell id="ooP9Urd4mtOMo5Kpr5c1-2" value="201: тренировка добавлена, возвращаем полную модель тренировки&lt;br&gt;400: какое либо из полей модели, отправленной в теле, заполнено неправильно" style="rounded=0;whiteSpace=wrap;html=1;align=left;" vertex="1" parent="1">
          <mxGeometry x="9" y="590" width="120" height="190" as="geometry" />
        </mxCell>
        <mxCell id="ooP9Urd4mtOMo5Kpr5c1-10" value="" style="edgeStyle=orthogonalEdgeStyle;rounded=0;orthogonalLoop=1;jettySize=auto;html=1;" edge="1" parent="1" source="ooP9Urd4mtOMo5Kpr5c1-5" target="ooP9Urd4mtOMo5Kpr5c1-9">
          <mxGeometry relative="1" as="geometry" />
        </mxCell>
        <mxCell id="ooP9Urd4mtOMo5Kpr5c1-5" value="Есть ли возможность реализации обновления отдельных полей в модели тренировки???????" style="rounded=1;whiteSpace=wrap;html=1;" vertex="1" parent="1">
          <mxGeometry x="349" y="610" width="120" height="110" as="geometry" />
        </mxCell>
        <mxCell id="ooP9Urd4mtOMo5Kpr5c1-7" value="200: Возвращаем полную модель тренировки&lt;br&gt;404: тренировки с заданным ID не существует" style="rounded=0;whiteSpace=wrap;html=1;align=left;" vertex="1" parent="1">
          <mxGeometry x="179" y="590" width="120" height="120" as="geometry" />
        </mxCell>
        <mxCell id="ooP9Urd4mtOMo5Kpr5c1-9" value="201: Поля тренировки изменены, возвращаем полную обновленную модель тренировки&lt;br&gt;400: какое либо из полей модели, отправленной в теле, заполненно неправильно; ID указан неверно" style="rounded=0;whiteSpace=wrap;html=1;align=left;" vertex="1" parent="1">
          <mxGeometry x="349" y="760" width="120" height="200" as="geometry" />
        </mxCell>
      </root>
    </mxGraphModel>
  </diagram>
  <diagram id="eraPwUNt43AHqkm0PBcv" name="Тело события">
    <mxGraphModel dx="1098" dy="838" grid="1" gridSize="10" guides="1" tooltips="1" connect="1" arrows="1" fold="1" page="1" pageScale="1" pageWidth="827" pageHeight="1169" math="0" shadow="0">
      <root>
        <mxCell id="0" />
        <mxCell id="1" parent="0" />
        <mxCell id="dU7wPzOPptCY1-y9AALO-1" value="&lt;h1&gt;Heading&lt;/h1&gt;&lt;p&gt;Lorem ipsum dolor sit amet, consectetur adipisicing elit, sed do eiusmod tempor incididunt ut labore et dolore magna aliqua.&lt;/p&gt;" style="text;html=1;strokeColor=none;fillColor=none;spacing=5;spacingTop=-20;whiteSpace=wrap;overflow=hidden;rounded=0;" vertex="1" parent="1">
          <mxGeometry x="90" y="40" width="190" height="120" as="geometry" />
        </mxCell>
      </root>
    </mxGraphModel>
  </diagram>
</mxfile>
